<svg viewBox="134.1101 334.5087 423.2284 133.3961" width="5000" height="1575.9351215561146" xmlns="http://www.w3.org/2000/svg" xmlns:xlink="http://www.w3.org/1999/xlink" preserveAspectRatio="none"><defs></defs><style>.aD6z1nYkhcolor {fill:#FFFFFF;fill-opacity:1;}.aD6z1nYkhstrokeColor-str {stroke:#D9D9D9;stroke-opacity:1;}.ashadowhpqLSneuKN6-floo {flood-color:#4B4B4B;flood-opacity:0.5;}.ashadowP-3c8CJBC-O-floo {flood-color:#4B4B4B;flood-opacity:0.5;}.ashadowp2XSmm08D1--floo {flood-color:#4B4B4B;flood-opacity:0.5;}.ashadowrA0He79hHj9-floo {flood-color:#4B4B4B;flood-opacity:0.5;}</style><defs>
      <filter
        x="278.5948"
        y="384.142"
        width="278.7437"
        height="82.7628"
        id="AWi-nNPKLG"
        filterUnits="userSpaceOnUse"
        primitiveUnits="userSpaceOnUse"
        color-interpolation-filters="sRGB">
        
    <feGaussianBlur in="SourceGraphic" stdDeviation="7"/>
    <feOffset dx="15" dy="4" result="dU49oYOhFXJ"/>
    <feFlood flood-color="#4B4B4B" flood-opacity="0.5" in="dU49oYOhFXJ" />
    <feComposite  in2="dU49oYOhFXJ" operator="in" result="ONdejNJ2Lbs"/><feMerge result="a7UHUtacD9fL"><feMergeNode in="ONdejNJ2Lbs" /><feMergeNode in="SourceGraphic" /></feMerge>
      </filter>
      <filter
        x="134.1101"
        y="334.5087"
        width="165.7127"
        height="133.3961"
        id="a4gm0aDXhZ"
        filterUnits="userSpaceOnUse"
        primitiveUnits="userSpaceOnUse"
        color-interpolation-filters="sRGB">
        
    <feGaussianBlur in="SourceGraphic" stdDeviation="5"/>
    <feOffset dx="5" dy="5" result="XNxMjrLtWZ3"/>
    <feFlood flood-color="#4B4B4B" flood-opacity="0.5" in="XNxMjrLtWZ3" />
    <feComposite  in2="XNxMjrLtWZ3" operator="in" result="WHZz6uZJSNP"/><feMerge result="D5NUz4ZuDv3"><feMergeNode in="WHZz6uZJSNP" /><feMergeNode in="SourceGraphic" /></feMerge>
      </filter></defs><g filter="url(#a4gm0aDXhZ)"><g opacity="1" transform="rotate(0 144.1101 344.5087)">
<svg width="135.7127" height="103.3961" x="144.1101" y="344.5087" version="1.1" preserveAspectRatio="none" viewBox="20 39 160 121.89999389648438">
  <g transform="matrix(1 0 0 1 0 0)" ><g><path d="M139.6 61.7C128.4 48 111.4 39.2 92.3 39h-.6c-33.7.3-61.1 27.7-61.1 61.5h15.1c.1 7.5 1.6 14.9 4.4 21.8 6 1.8 12.4 2.4 18.6 1.6-4.7-7.3-7.1-15.8-7.1-24.4h-15c.5-24.6 20.7-44.5 45.5-44.6 9.8 0 19.4 3.3 27.3 9.2 6.5-1.9 13.4-2.7 20.2-2.4z" data-color="1" style="fill:#FFFFFF;fill-opacity:1;"></path><path d="M168.9 99.5h-15.7c-.1-6.8-1.3-13.6-3.7-20.1-5.9-1.8-12.1-2.3-18.2-1.7 4 6.9 6.1 14.7 6.1 22.7H153c-.5 24.7-20.8 44.6-45.6 44.7-9.1 0-18-2.7-25.5-7.8-5.9 1.8-12.1 2.8-18.3 2.8-.8 0-1.6 0-2.4-.1 11.3 12.8 27.8 20.9 46.1 20.9h.2c33.8 0 61.4-27.5 61.4-61.4z" data-color="1" style="fill:#FFFFFF;fill-opacity:1;"></path><path d="M149.7 79.4c7.2 2.2 13.8 6.1 19.1 11.4L180 79.6a61.122 61.122 0 0 0-40.4-17.9c-6.8-.3-13.7.4-20.3 2.3-10 2.9-19.1 8.2-26.4 15.6l11.2 11.2c7.6-7.6 17.3-12 27.3-13.1 6.2-.6 12.4 0 18.3 1.7z" data-color="2" style="fill:#D9D9D9;fill-opacity:1;"></path><path d="M50.2 122.3c-7.1-2.1-13.6-6-19-11.4L20 122.1c11.1 11.1 25.6 17.4 41.2 18 .8 0 1.6.1 2.4.1 6.3 0 12.5-.9 18.3-2.8 9.4-2.9 18.1-8.1 25.2-15.3l-11.2-11.2c-7.4 7.4-16.8 11.9-27.1 13.1-1.8.2-3.5.3-5.3.3-4.5 0-9-.7-13.3-2z" data-color="2" style="fill:#D9D9D9;fill-opacity:1;"></path></g></g>
</svg>
</g></g><g filter="url(#AWi-nNPKLG)"><g opacity="1" transform="rotate(0 284.5948 401.142)">
<svg width="236.7437" height="40.7628" x="284.5948" y="401.142" version="1.1" preserveAspectRatio="none" viewBox="2.72 -30.64 459.28 79.08">
  <g transform="matrix(1 0 0 1 0 0)" class="aD6z1nYkhcolor"><defs><path id="id-D6z1nYkh32" d="M35.94-2.24Q34.82-1.24 31.84-0.40Q28.86 0.44 26.26 0.44L26.26 0.44Q24.02 0.44 20.62-0.60Q17.22-1.64 14.36-4.66Q11.50-7.68 11.50-13.12L11.50-13.12Q11.50-16.88 13.14-20.66Q14.78-24.44 18.34-27Q21.90-29.56 27.30-29.56L27.30-29.56Q30.02-29.56 32.74-28.88Q35.46-28.20 37.58-26.84L37.58-26.84L35.02-21.56Q33.50-22.56 31.44-23.14Q29.38-23.72 27.54-23.72L27.54-23.72Q23.90-23.72 21.66-22.10Q19.42-20.48 18.50-18.12Q17.58-15.76 17.58-13.32L17.58-13.32Q17.58-10.12 19.36-8.34Q21.14-6.56 23.32-5.94Q25.50-5.32 27.18-5.32L27.18-5.32Q29.22-5.24 30.46-5.88L30.46-5.88L30.90-9.72L25.82-9.72L26.50-15.28L37.50-15.28L35.94-2.24Z M45.90-29.44L65.98-29.44L65.34-24.04L51.26-24.04L50.46-17.48L62.90-17.48L62.22-11.96L49.78-11.96L48.98-5.56L63.62-5.56L62.94 0L42.30 0L45.90-29.44Z M83.22 0.28Q79.66 0.28 76.42-1.24Q73.18-2.76 71.14-5.90Q69.10-9.04 69.10-13.72L69.10-13.72Q69.10-17.48 70.92-21.18Q72.74-24.88 76.38-27.30Q80.02-29.72 85.10-29.72L85.10-29.72Q88.66-29.72 91.90-28.20Q95.14-26.68 97.18-23.54Q99.22-20.40 99.22-15.72L99.22-15.72Q99.22-11.96 97.40-8.26Q95.58-4.56 91.94-2.14Q88.30 0.28 83.22 0.28L83.22 0.28ZM83.30-5.32Q86.70-5.32 88.94-6.86Q91.18-8.40 92.20-10.70Q93.22-13 93.22-15.40L93.22-15.40Q93.22-17.72 92.14-19.72Q91.06-21.72 89.14-22.92Q87.22-24.12 84.86-24.12L84.86-24.12Q81.46-24.12 79.26-22.60Q77.06-21.08 76.08-18.76Q75.10-16.44 75.10-14.04L75.10-14.04Q75.10-11.72 76.14-9.72Q77.18-7.72 79.06-6.52Q80.94-5.32 83.30-5.32L83.30-5.32Z M125.90-19.52Q125.58-16.80 124.16-14.42Q122.74-12.04 120.18-10.68L120.18-10.68L125.70 0L118.94 0L113.86-9.36L110.02-9.36L108.86 0L103.06 0L106.66-29.44L115.58-29.44Q120.62-29.44 123.30-27.18Q125.98-24.92 125.98-20.96L125.98-20.96Q125.98-20.56 125.90-19.52L125.90-19.52ZM111.78-23.84L110.70-14.96L114.82-14.96Q117.18-14.96 118.42-16.34Q119.66-17.72 119.86-19.32L119.86-19.32Q119.90-19.52 119.90-20.08L119.90-20.08Q119.90-21.56 119.06-22.70Q118.22-23.84 115.94-23.84L115.94-23.84L111.78-23.84Z M154.06-2.24Q152.94-1.24 149.96-0.40Q146.98 0.44 144.38 0.44L144.38 0.44Q142.14 0.44 138.74-0.60Q135.34-1.64 132.48-4.66Q129.62-7.68 129.62-13.12L129.62-13.12Q129.62-16.88 131.26-20.66Q132.90-24.44 136.46-27Q140.02-29.56 145.42-29.56L145.42-29.56Q148.14-29.56 150.86-28.88Q153.58-28.20 155.70-26.84L155.70-26.84L153.14-21.56Q151.62-22.56 149.56-23.14Q147.50-23.72 145.66-23.72L145.66-23.72Q142.02-23.72 139.78-22.10Q137.54-20.48 136.62-18.12Q135.70-15.76 135.70-13.32L135.70-13.32Q135.70-10.12 137.48-8.34Q139.26-6.56 141.44-5.94Q143.62-5.32 145.30-5.32L145.30-5.32Q147.34-5.24 148.58-5.88L148.58-5.88L149.02-9.72L143.94-9.72L144.62-15.28L155.62-15.28L154.06-2.24Z M164.02-29.44L170.02-29.44L166.42 0L160.42 0L164.02-29.44Z M190.86 0L189.30-5.76L179.54-5.76L176.42 0L170.70 0L187.74-30.60L188.06-30.60L197.58 0L190.86 0ZM182.14-10.64L187.98-10.64L186.02-17.80L182.14-10.64Z M226.14-29.44L231.98-29.44L228.22 1.20L228.06 1.20L209.74-17.40L207.74 0L201.86 0L205.62-30.60L205.86-30.60L224.10-11.68L226.14-29.44Z M264.82 0L263.26-5.76L253.50-5.76L250.38 0L244.66 0L261.70-30.60L262.02-30.60L271.54 0L264.82 0ZM256.10-10.64L261.94-10.64L259.98-17.80L256.10-10.64Z M296.38-1.72Q295.30-1 293.00-0.24Q290.70 0.52 288.06 0.52L288.06 0.52Q284.62 0.52 281.42-0.80Q278.22-2.12 276.10-5.18Q273.98-8.24 273.98-13.16L273.98-13.16Q273.98-17.56 275.62-21.30Q277.26-25.04 280.70-27.34Q284.14-29.64 289.18-29.64L289.18-29.64Q292.18-29.64 294.64-28.74Q297.10-27.84 298.82-26.52L298.82-26.52L295.86-21.20Q294.62-22.36 292.92-23.20Q291.22-24.04 289.10-24.04L289.10-24.04Q286.42-24.04 284.38-22.72Q282.34-21.40 281.20-19.02Q280.06-16.64 280.06-13.60L280.06-13.60Q280.06-9.80 282.28-7.46Q284.50-5.12 288.30-5.12L288.30-5.12Q290.50-5.12 291.86-5.68Q293.22-6.24 294.62-7.08L294.62-7.08L296.38-1.72Z M318.66 0L317.10-5.76L307.34-5.76L304.22 0L298.50 0L315.54-30.60L315.86-30.60L325.38 0L318.66 0ZM309.94-10.64L315.78-10.64L313.82-17.80L309.94-10.64Z M329.70 0L333.30-29.44L343.70-29.44Q348.22-29.44 351.10-27.64Q353.98-25.84 355.28-22.92Q356.58-20 356.58-16.44L356.58-16.44Q356.58-15.36 356.46-14.20L356.46-14.20Q355.98-9.96 353.78-6.72Q351.58-3.48 348.26-1.74Q344.94 0 341.22 0L341.22 0L329.70 0ZM336.18-5.60L340.90-5.60Q344.90-5.60 347.48-7.92Q350.06-10.24 350.54-14.60L350.54-14.60Q350.66-15.44 350.66-16.20L350.66-16.20Q350.66-19.12 349.40-20.82Q348.14-22.52 346.42-23.20Q344.70-23.88 343.14-23.88L343.14-23.88L338.42-23.88L336.18-5.60Z M363.98-29.44L384.06-29.44L383.42-24.04L369.34-24.04L368.54-17.48L380.98-17.48L380.30-11.96L367.86-11.96L367.06-5.56L381.70-5.56L381.02 0L360.38 0L363.98-29.44Z M421.02-30.64L421.10-30.64L417.34 0L411.54 0L413.26-14.04L401.98-0.40L401.90-0.40L394.22-13.20L392.62 0L387.02 0L390.78-30.64L390.82-30.64L403.18-9.44L421.02-30.64Z M446.06-29.44L453.22-29.44L439.70-9.16L438.58 0L432.78 0L433.90-9.16L425.54-29.44L432.70-29.44L437.78-15.84L446.06-29.44Z M16.84 48.28Q13.28 48.28 10.04 46.76Q6.80 45.24 4.76 42.10Q2.72 38.96 2.72 34.28L2.72 34.28Q2.72 30.52 4.54 26.82Q6.36 23.12 10 20.70Q13.64 18.28 18.72 18.28L18.72 18.28Q22.28 18.28 25.52 19.80Q28.76 21.32 30.80 24.46Q32.84 27.60 32.84 32.28L32.84 32.28Q32.84 36.04 31.02 39.74Q29.20 43.44 25.56 45.86Q21.92 48.28 16.84 48.28L16.84 48.28ZM16.92 42.68Q20.32 42.68 22.56 41.14Q24.80 39.60 25.82 37.30Q26.84 35 26.84 32.60L26.84 32.60Q26.84 30.28 25.76 28.28Q24.68 26.28 22.76 25.08Q20.84 23.88 18.48 23.88L18.48 23.88Q15.08 23.88 12.88 25.40Q10.68 26.92 9.70 29.24Q8.72 31.56 8.72 33.96L8.72 33.96Q8.72 36.28 9.76 38.28Q10.80 40.28 12.68 41.48Q14.56 42.68 16.92 42.68L16.92 42.68Z M40.28 18.56L58.68 18.56L58 24.08L45.60 24.08L44.80 30.88L55.52 30.88L54.80 36.44L44.08 36.44L42.68 48L36.68 48L40.28 18.56Z M86.92 48.28Q83.36 48.28 80.12 46.76Q76.88 45.24 74.84 42.10Q72.80 38.96 72.80 34.28L72.80 34.28Q72.80 30.52 74.62 26.82Q76.44 23.12 80.08 20.70Q83.72 18.28 88.80 18.28L88.80 18.28Q92.36 18.28 95.60 19.80Q98.84 21.32 100.88 24.46Q102.92 27.60 102.92 32.28L102.92 32.28Q102.92 36.04 101.10 39.74Q99.28 43.44 95.64 45.86Q92 48.28 86.92 48.28L86.92 48.28ZM87 42.68Q90.40 42.68 92.64 41.14Q94.88 39.60 95.90 37.30Q96.92 35 96.92 32.60L96.92 32.60Q96.92 30.28 95.84 28.28Q94.76 26.28 92.84 25.08Q90.92 23.88 88.56 23.88L88.56 23.88Q85.16 23.88 82.96 25.40Q80.76 26.92 79.78 29.24Q78.80 31.56 78.80 33.96L78.80 33.96Q78.80 36.28 79.84 38.28Q80.88 40.28 82.76 41.48Q84.64 42.68 87 42.68L87 42.68Z M119.28 18.56Q124.20 18.56 126.84 20.88Q129.48 23.20 129.48 27.24L129.48 27.24Q129.48 30.04 128.30 32.64Q127.12 35.24 124.50 36.96Q121.88 38.68 117.88 38.68L117.88 38.68L113.92 38.68L112.76 48L106.76 48L110.36 18.56L119.28 18.56ZM118.32 33.04Q120.08 33.04 121.22 32.22Q122.36 31.40 122.88 30.24Q123.40 29.08 123.40 28.08L123.40 28.08Q123.40 26.64 122.56 25.40Q121.72 24.16 119.44 24.16L119.44 24.16L115.68 24.16L114.60 33.04L118.32 33.04Z M159.84 18.56L156.24 48L150.24 48L151.72 36.04L138.96 36.04L137.48 48L131.48 48L135.08 18.56L141.08 18.56L139.64 30.36L152.40 30.36L153.84 18.56L159.84 18.56Z M165.48 18.56L185.32 18.56L184.60 24.28L177.56 24.28L174.64 48L168.64 48L171.56 24.28L164.76 24.28L165.48 18.56Z M215.68 18.56L212.08 48L206.08 48L207.56 36.04L194.80 36.04L193.32 48L187.32 48L190.92 18.56L196.92 18.56L195.48 30.36L208.24 30.36L209.68 18.56L215.68 18.56Z M236.52 48L234.96 42.24L225.20 42.24L222.08 48L216.36 48L233.40 17.40L233.72 17.40L243.24 48L236.52 48ZM227.80 37.36L233.64 37.36L231.68 30.20L227.80 37.36Z M251.16 18.56L256.96 18.56L254.04 42.40L267.88 42.40L267.20 48L247.56 48L251.16 18.56Z M307.04 17.36L307.12 17.36L303.36 48L297.56 48L299.28 33.96L288 47.60L287.92 47.60L280.24 34.80L278.64 48L273.04 48L276.80 17.36L276.84 17.36L289.20 38.56L307.04 17.36Z M325.24 48.28Q321.68 48.28 318.44 46.76Q315.20 45.24 313.16 42.10Q311.12 38.96 311.12 34.28L311.12 34.28Q311.12 30.52 312.94 26.82Q314.76 23.12 318.40 20.70Q322.04 18.28 327.12 18.28L327.12 18.28Q330.68 18.28 333.92 19.80Q337.16 21.32 339.20 24.46Q341.24 27.60 341.24 32.28L341.24 32.28Q341.24 36.04 339.42 39.74Q337.60 43.44 333.96 45.86Q330.32 48.28 325.24 48.28L325.24 48.28ZM325.32 42.68Q328.72 42.68 330.96 41.14Q333.20 39.60 334.22 37.30Q335.24 35 335.24 32.60L335.24 32.60Q335.24 30.28 334.16 28.28Q333.08 26.28 331.16 25.08Q329.24 23.88 326.88 23.88L326.88 23.88Q323.48 23.88 321.28 25.40Q319.08 26.92 318.10 29.24Q317.12 31.56 317.12 33.96L317.12 33.96Q317.12 36.28 318.16 38.28Q319.20 40.28 321.08 41.48Q322.96 42.68 325.32 42.68L325.32 42.68Z M348.68 18.56L354.48 18.56L351.56 42.40L365.40 42.40L364.72 48L345.08 48L348.68 18.56Z M384.04 48.28Q380.48 48.28 377.24 46.76Q374 45.24 371.96 42.10Q369.92 38.96 369.92 34.28L369.92 34.28Q369.92 30.52 371.74 26.82Q373.56 23.12 377.20 20.70Q380.84 18.28 385.92 18.28L385.92 18.28Q389.48 18.28 392.72 19.80Q395.96 21.32 398 24.46Q400.04 27.60 400.04 32.28L400.04 32.28Q400.04 36.04 398.22 39.74Q396.40 43.44 392.76 45.86Q389.12 48.28 384.04 48.28L384.04 48.28ZM384.12 42.68Q387.52 42.68 389.76 41.14Q392 39.60 393.02 37.30Q394.04 35 394.04 32.60L394.04 32.60Q394.04 30.28 392.96 28.28Q391.88 26.28 389.96 25.08Q388.04 23.88 385.68 23.88L385.68 23.88Q382.28 23.88 380.08 25.40Q377.88 26.92 376.90 29.24Q375.92 31.56 375.92 33.96L375.92 33.96Q375.92 36.28 376.96 38.28Q378 40.28 379.88 41.48Q381.76 42.68 384.12 42.68L384.12 42.68Z M428.40 45.76Q427.28 46.76 424.30 47.60Q421.32 48.44 418.72 48.44L418.72 48.44Q416.48 48.44 413.08 47.40Q409.68 46.36 406.82 43.34Q403.96 40.32 403.96 34.88L403.96 34.88Q403.96 31.12 405.60 27.34Q407.24 23.56 410.80 21Q414.36 18.44 419.76 18.44L419.76 18.44Q422.48 18.44 425.20 19.12Q427.92 19.80 430.04 21.16L430.04 21.16L427.48 26.44Q425.96 25.44 423.90 24.86Q421.84 24.28 420 24.28L420 24.28Q416.36 24.28 414.12 25.90Q411.88 27.52 410.96 29.88Q410.04 32.24 410.04 34.68L410.04 34.68Q410.04 37.88 411.82 39.66Q413.60 41.44 415.78 42.06Q417.96 42.68 419.64 42.68L419.64 42.68Q421.68 42.76 422.92 42.12L422.92 42.12L423.36 38.28L418.28 38.28L418.96 32.72L429.96 32.72L428.40 45.76Z M454.84 18.56L462.00 18.56L448.48 38.84L447.36 48L441.56 48L442.68 38.84L434.32 18.56L441.48 18.56L446.56 32.16L454.84 18.56Z"/></defs>
  <clipPath id="id-D6z1nYkh32-clip"><use xlink:href="#id-D6z1nYkh32" /></clipPath>
  <g clip-path="url(#id-D6z1nYkh32-clip)"><use xlink:href="#id-D6z1nYkh32" class="aD6z1nYkhstrokeColor-str" style="stroke-width:3.1;"/></g>
  </g>
</svg>
</g></g></svg>